<svg xmlns="http://www.w3.org/2000/svg" width="16" height="16" viewBox="0 0 16 16" fill="none"><g clip-path="url(#clip0_35_333)"><path d="M11.648 9.58803C11.45 9.48869 10.476 9.01003 10.2947 8.94336C10.1127 8.87736 9.98069 8.84469 9.84803 9.04336C9.71669 9.24136 9.33669 9.68736 9.22136 9.81936C9.10602 9.95203 8.99002 9.96803 8.79202 9.86936C8.59402 9.76936 7.95536 9.56069 7.19869 8.88603C6.61003 8.36069 6.21203 7.71203 6.09669 7.51336C5.98136 7.31536 6.08469 7.20803 6.18336 7.10936C6.27269 7.02069 6.38202 6.87803 6.48069 6.76269C6.58002 6.64669 6.61269 6.56403 6.67936 6.43136C6.74536 6.29936 6.71269 6.18403 6.66269 6.08469C6.61269 5.98536 6.21669 5.01003 6.05203 4.61336C5.89069 4.22736 5.72736 4.28003 5.60603 4.27336C5.49069 4.26803 5.35869 4.26669 5.22603 4.26669C5.09403 4.26669 4.87936 4.31603 4.69802 4.51469C4.51669 4.71269 4.00469 5.19203 4.00469 6.16736C4.00469 7.14203 4.71469 8.08403 4.81336 8.21669C4.91269 8.34869 6.21069 10.35 8.19802 11.208C8.67069 11.412 9.03936 11.534 9.32736 11.6247C9.80203 11.776 10.234 11.7547 10.5747 11.7034C10.9554 11.6467 11.7467 11.224 11.912 10.7614C12.0774 10.2987 12.0774 9.90203 12.0274 9.81936C11.978 9.73669 11.8467 9.68736 11.648 9.58803ZM8.03336 14.5234H8.03069C6.85054 14.5235 5.69208 14.2062 4.67669 13.6047L4.43602 13.462L1.94203 14.1167L2.60736 11.6847L2.45069 11.4354C1.79098 10.3849 1.44199 9.16915 1.44402 7.92869C1.44469 4.29536 4.40136 1.33936 8.03602 1.33936C9.79603 1.33936 11.4507 2.02603 12.6947 3.27136C13.3085 3.88244 13.795 4.60918 14.126 5.40952C14.4571 6.20987 14.6261 7.06792 14.6234 7.93403C14.6214 11.5674 11.6654 14.5234 8.03336 14.5234ZM13.642 2.32536C12.9075 1.58598 12.0335 0.999719 11.0708 0.600561C10.108 0.201403 9.07558 -0.0027175 8.03336 2.73184e-05C3.66336 2.73184e-05 0.106692 3.55669 0.104692 7.92803C0.104692 9.32536 0.469358 10.6894 1.16336 11.8914L0.0380249 16L4.24136 14.8974C5.40375 15.5306 6.70632 15.8625 8.03003 15.8627H8.03336C12.4027 15.8627 15.96 12.306 15.962 7.93403C15.9652 6.89221 15.7619 5.86009 15.3636 4.89738C14.9654 3.93467 14.3803 3.06047 13.642 2.32536Z" fill="white"></path></g><defs><clipPath id="clip0_35_333"><rect width="16" height="16" fill="white"></rect></clipPath></defs></svg>