<svg xmlns="http://www.w3.org/2000/svg" width="64" height="64" viewBox="0 0 64 64" fill="none"><path d="M0 32C0 14.3269 14.3269 0 32 0C49.6731 0 64 14.3269 64 32C64 49.6731 49.6731 64 32 64C14.3269 64 0 49.6731 0 32Z" fill="white"></path><path d="M36.6361 33.1866L38.6561 44.5546C38.6787 44.6885 38.6599 44.8261 38.6023 44.949C38.5446 45.0719 38.4508 45.1742 38.3333 45.2424C38.2159 45.3105 38.0805 45.3412 37.9452 45.3303C37.8098 45.3193 37.6811 45.2674 37.5761 45.1813L32.8028 41.5986C32.5723 41.4265 32.2924 41.3335 32.0048 41.3335C31.7171 41.3335 31.4372 41.4265 31.2068 41.5986L26.4254 45.18C26.3205 45.2659 26.1919 45.3178 26.0568 45.3287C25.9216 45.3396 25.7863 45.3091 25.669 45.2411C25.5516 45.1732 25.4578 45.0711 25.4 44.9484C25.3422 44.8258 25.3231 44.6884 25.3454 44.5546L27.3641 33.1866" stroke="#FFB800" stroke-width="2.66667" stroke-linecap="round" stroke-linejoin="round"></path><path d="M32.0001 34.6666C36.4183 34.6666 40.0001 31.0849 40.0001 26.6666C40.0001 22.2483 36.4183 18.6666 32.0001 18.6666C27.5818 18.6666 24.0001 22.2483 24.0001 26.6666C24.0001 31.0849 27.5818 34.6666 32.0001 34.6666Z" stroke="#FFB800" stroke-width="2.66667" stroke-linecap="round" stroke-linejoin="round"></path></svg>