<svg xmlns="http://www.w3.org/2000/svg" width="56" height="56" viewBox="0 0 56 56" fill="none"><path d="M0 16C0 7.16344 7.16344 0 16 0H40C48.8366 0 56 7.16344 56 16V40C56 48.8366 48.8366 56 40 56H16C7.16344 56 0 48.8366 0 40V16Z" fill="url(#paint0_linear_54_10759)"></path><path d="M32.6667 38.5V36.1667C32.6667 34.929 32.175 33.742 31.2998 32.8668C30.4247 31.9917 29.2377 31.5 28 31.5H21C19.7623 31.5 18.5753 31.9917 17.7002 32.8668C16.825 33.742 16.3333 34.929 16.3333 36.1667V38.5" stroke="white" stroke-width="2.33333" stroke-linecap="round" stroke-linejoin="round"></path><path d="M24.5 26.8333C27.0773 26.8333 29.1667 24.744 29.1667 22.1667C29.1667 19.5893 27.0773 17.5 24.5 17.5C21.9227 17.5 19.8333 19.5893 19.8333 22.1667C19.8333 24.744 21.9227 26.8333 24.5 26.8333Z" stroke="white" stroke-width="2.33333" stroke-linecap="round" stroke-linejoin="round"></path><path d="M36.1667 23.3334V30.3334" stroke="white" stroke-width="2.33333" stroke-linecap="round" stroke-linejoin="round"></path><path d="M39.6667 26.8334H32.6667" stroke="white" stroke-width="2.33333" stroke-linecap="round" stroke-linejoin="round"></path><defs><linearGradient id="paint0_linear_54_10759" x1="0" y1="0" x2="56" y2="56" gradientUnits="userSpaceOnUse"><stop stop-color="#2B7FFF"></stop><stop offset="1" stop-color="#1447E6"></stop></linearGradient></defs></svg>