<svg xmlns="http://www.w3.org/2000/svg" width="48" height="48" viewBox="0 0 48 48" fill="none"><path d="M0 24C0 10.7452 10.7452 0 24 0C37.2548 0 48 10.7452 48 24C48 37.2548 37.2548 48 24 48C10.7452 48 0 37.2548 0 24Z" fill="url(#paint0_linear_35_211)"></path><path d="M28 33V31C28 29.9391 27.5786 28.9217 26.8284 28.1716C26.0783 27.4214 25.0609 27 24 27H18C16.9391 27 15.9217 27.4214 15.1716 28.1716C14.4214 28.9217 14 29.9391 14 31V33" stroke="white" stroke-width="2" stroke-linecap="round" stroke-linejoin="round"></path><path d="M21 23C23.2091 23 25 21.2091 25 19C25 16.7909 23.2091 15 21 15C18.7909 15 17 16.7909 17 19C17 21.2091 18.7909 23 21 23Z" stroke="white" stroke-width="2" stroke-linecap="round" stroke-linejoin="round"></path><path d="M34 32.9999V30.9999C33.9993 30.1136 33.7044 29.2527 33.1614 28.5522C32.6184 27.8517 31.8581 27.3515 31 27.1299" stroke="white" stroke-width="2" stroke-linecap="round" stroke-linejoin="round"></path><path d="M28 15.1299C28.8604 15.3502 29.623 15.8506 30.1676 16.5522C30.7122 17.2538 31.0078 18.1167 31.0078 19.0049C31.0078 19.8931 30.7122 20.756 30.1676 21.4576C29.623 22.1592 28.8604 22.6596 28 22.8799" stroke="white" stroke-width="2" stroke-linecap="round" stroke-linejoin="round"></path><defs><linearGradient id="paint0_linear_35_211" x1="0" y1="0" x2="48" y2="48" gradientUnits="userSpaceOnUse"><stop stop-color="#AD46FF"></stop><stop offset="1" stop-color="#F6339A"></stop></linearGradient></defs></svg>