<svg xmlns="http://www.w3.org/2000/svg" width="16" height="16" viewBox="0 0 16 16" fill="none"><path d="M3.99998 6.00008H2.99998C2.55795 6.00008 2.13403 5.82449 1.82147 5.51193C1.50891 5.19937 1.33331 4.77544 1.33331 4.33341C1.33331 3.89139 1.50891 3.46746 1.82147 3.1549C2.13403 2.84234 2.55795 2.66675 2.99998 2.66675H3.99998" stroke="#101828" stroke-width="1.33333" stroke-linecap="round" stroke-linejoin="round"></path><path d="M12 6.00008H13C13.442 6.00008 13.866 5.82449 14.1785 5.51193C14.4911 5.19937 14.6667 4.77544 14.6667 4.33341C14.6667 3.89139 14.4911 3.46746 14.1785 3.1549C13.866 2.84234 13.442 2.66675 13 2.66675H12" stroke="#101828" stroke-width="1.33333" stroke-linecap="round" stroke-linejoin="round"></path><path d="M2.66669 14.6667H13.3334" stroke="#101828" stroke-width="1.33333" stroke-linecap="round" stroke-linejoin="round"></path><path d="M6.66669 9.77319V11.3332C6.66669 11.6999 6.35335 11.9865 6.02002 12.1399C5.23335 12.4999 4.66669 13.4932 4.66669 14.6665" stroke="#101828" stroke-width="1.33333" stroke-linecap="round" stroke-linejoin="round"></path><path d="M9.33331 9.77319V11.3332C9.33331 11.6999 9.64665 11.9865 9.97998 12.1399C10.7666 12.4999 11.3333 13.4932 11.3333 14.6665" stroke="#101828" stroke-width="1.33333" stroke-linecap="round" stroke-linejoin="round"></path><path d="M12 1.33325H4V5.99992C4 7.06078 4.42143 8.0782 5.17157 8.82835C5.92172 9.57849 6.93913 9.99992 8 9.99992C9.06087 9.99992 10.0783 9.57849 10.8284 8.82835C11.5786 8.0782 12 7.06078 12 5.99992V1.33325Z" stroke="#101828" stroke-width="1.33333" stroke-linecap="round" stroke-linejoin="round"></path></svg>