<svg xmlns="http://www.w3.org/2000/svg" width="16" height="16" viewBox="0 0 16 16" fill="none"><path d="M10.6667 14V12.6667C10.6667 11.9594 10.3857 11.2811 9.88563 10.781C9.38553 10.281 8.70725 10 8.00001 10H4.00001C3.29277 10 2.61449 10.281 2.11439 10.781C1.6143 11.2811 1.33334 11.9594 1.33334 12.6667V14" stroke="white" stroke-width="1.33333" stroke-linecap="round" stroke-linejoin="round"></path><path d="M6.00001 7.33333C7.47277 7.33333 8.66668 6.13943 8.66668 4.66667C8.66668 3.19391 7.47277 2 6.00001 2C4.52725 2 3.33334 3.19391 3.33334 4.66667C3.33334 6.13943 4.52725 7.33333 6.00001 7.33333Z" stroke="white" stroke-width="1.33333" stroke-linecap="round" stroke-linejoin="round"></path><path d="M14.6667 13.9998V12.6664C14.6662 12.0756 14.4696 11.5016 14.1076 11.0346C13.7456 10.5677 13.2387 10.2341 12.6667 10.0864" stroke="white" stroke-width="1.33333" stroke-linecap="round" stroke-linejoin="round"></path><path d="M10.6667 2.08643C11.2403 2.23329 11.7487 2.56689 12.1117 3.03463C12.4748 3.50237 12.6719 4.07765 12.6719 4.66976C12.6719 5.26187 12.4748 5.83715 12.1117 6.30488C11.7487 6.77262 11.2403 7.10622 10.6667 7.25309" stroke="white" stroke-width="1.33333" stroke-linecap="round" stroke-linejoin="round"></path></svg>