<svg xmlns="http://www.w3.org/2000/svg" width="20" height="20" viewBox="0 0 20 20" fill="none"><path d="M9.63499 2.72156C9.67096 2.65623 9.7238 2.60176 9.78801 2.56382C9.85221 2.52587 9.92542 2.50586 9.99999 2.50586C10.0746 2.50586 10.1478 2.52587 10.212 2.56382C10.2762 2.60176 10.329 2.65623 10.365 2.72156L12.825 7.39156C12.8837 7.4997 12.9655 7.5935 13.0647 7.66625C13.164 7.73899 13.2781 7.78886 13.3988 7.81228C13.5196 7.8357 13.6441 7.83209 13.7633 7.80171C13.8825 7.77133 13.9935 7.71493 14.0883 7.63656L17.6525 4.58323C17.7209 4.52758 17.8052 4.49508 17.8933 4.4904C17.9814 4.48572 18.0686 4.5091 18.1426 4.55718C18.2165 4.60527 18.2733 4.67557 18.3047 4.75797C18.3361 4.84037 18.3406 4.93062 18.3175 5.01573L15.9558 13.5541C15.9076 13.7288 15.8038 13.883 15.66 13.9934C15.5162 14.1038 15.3404 14.1643 15.1592 14.1657H4.84166C4.66027 14.1645 4.48425 14.104 4.34032 13.9937C4.19639 13.8833 4.09241 13.7289 4.04416 13.5541L1.68333 5.01656C1.6602 4.93146 1.66468 4.84121 1.69611 4.75881C1.72754 4.6764 1.78431 4.6061 1.85824 4.55802C1.93217 4.50993 2.01946 4.48655 2.10753 4.49123C2.19559 4.49591 2.27991 4.52841 2.34833 4.58406L5.91166 7.6374C6.00649 7.71576 6.1175 7.77216 6.23671 7.80254C6.35592 7.83293 6.48039 7.83653 6.60116 7.81311C6.72193 7.78969 6.83602 7.73982 6.93524 7.66708C7.03445 7.59434 7.11633 7.50053 7.17499 7.3924L9.63499 2.72156Z" stroke="#101828" stroke-width="1.66667" stroke-linecap="round" stroke-linejoin="round"></path><path d="M4.16667 17.5H15.8333" stroke="#101828" stroke-width="1.66667" stroke-linecap="round" stroke-linejoin="round"></path></svg>