<svg xmlns="http://www.w3.org/2000/svg" width="16" height="16" viewBox="0 0 16 16" fill="none"><path d="M6.84534 14C6.96237 14.2027 7.13068 14.371 7.33337 14.488C7.53605 14.605 7.76597 14.6666 8 14.6666C8.23404 14.6666 8.46396 14.605 8.66664 14.488C8.86933 14.371 9.03764 14.2027 9.15467 14" stroke="white" stroke-width="1.33333" stroke-linecap="round" stroke-linejoin="round"></path><path d="M2.17467 10.2175C2.08758 10.313 2.0301 10.4317 2.00924 10.5592C1.98837 10.6867 2.00501 10.8175 2.05714 10.9358C2.10926 11.054 2.19462 11.1545 2.30284 11.2251C2.41105 11.2958 2.53745 11.3334 2.66667 11.3335H13.3333C13.4625 11.3335 13.589 11.296 13.6972 11.2256C13.8055 11.1551 13.891 11.0547 13.9433 10.9365C13.9955 10.8183 14.0123 10.6876 13.9916 10.56C13.9709 10.4325 13.9136 10.3137 13.8267 10.2182C12.94 9.30416 12 8.33283 12 5.3335C12 4.27263 11.5786 3.25521 10.8284 2.50507C10.0783 1.75492 9.06087 1.3335 8 1.3335C6.93914 1.3335 5.92172 1.75492 5.17157 2.50507C4.42143 3.25521 4 4.27263 4 5.3335C4 8.33283 3.05933 9.30416 2.17467 10.2175Z" stroke="white" stroke-width="1.33333" stroke-linecap="round" stroke-linejoin="round"></path></svg>