<svg xmlns="http://www.w3.org/2000/svg" width="16" height="16" viewBox="0 0 16 16" fill="none"><g clip-path="url(#clip0_35_424)"><path d="M2 7.3335H4C4.35362 7.3335 4.69276 7.47397 4.94281 7.72402C5.19286 7.97407 5.33333 8.31321 5.33333 8.66683V10.6668C5.33333 11.0205 5.19286 11.3596 4.94281 11.6096C4.69276 11.8597 4.35362 12.0002 4 12.0002H3.33333C2.97971 12.0002 2.64057 11.8597 2.39052 11.6096C2.14048 11.3596 2 11.0205 2 10.6668V7.3335ZM2 7.3335C2 6.54557 2.15519 5.76535 2.45672 5.0374C2.75825 4.30944 3.20021 3.64801 3.75736 3.09086C4.31451 2.5337 4.97595 2.09175 5.7039 1.79022C6.43185 1.48869 7.21207 1.3335 8 1.3335C8.78793 1.3335 9.56815 1.48869 10.2961 1.79022C11.0241 2.09175 11.6855 2.5337 12.2426 3.09086C12.7998 3.64801 13.2417 4.30944 13.5433 5.0374C13.8448 5.76535 14 6.54557 14 7.3335M14 7.3335V10.6668C14 11.0205 13.8595 11.3596 13.6095 11.6096C13.3594 11.8597 13.0203 12.0002 12.6667 12.0002H12C11.6464 12.0002 11.3072 11.8597 11.0572 11.6096C10.8071 11.3596 10.6667 11.0205 10.6667 10.6668V8.66683C10.6667 8.31321 10.8071 7.97407 11.0572 7.72402C11.3072 7.47397 11.6464 7.3335 12 7.3335H14Z" stroke="white" stroke-width="1.33333" stroke-linecap="round" stroke-linejoin="round"></path><path d="M14 10.6665V11.9998C14 12.7071 13.719 13.3854 13.219 13.8855C12.7189 14.3856 12.0406 14.6665 11.3333 14.6665H8" stroke="white" stroke-width="1.33333" stroke-linecap="round" stroke-linejoin="round"></path></g><defs><clipPath id="clip0_35_424"><rect width="16" height="16" fill="white"></rect></clipPath></defs></svg>