<svg xmlns="http://www.w3.org/2000/svg" width="16" height="16" viewBox="0 0 16 16" fill="none"><g clip-path="url(#clip0_90_2012)"><path d="M6.62467 10.3334C6.56515 10.1026 6.44489 9.89209 6.27641 9.72361C6.10793 9.55513 5.89738 9.43488 5.66667 9.37536L1.57667 8.32069C1.50689 8.30088 1.44547 8.25886 1.40174 8.20099C1.35801 8.14312 1.33435 8.07256 1.33435 8.00002C1.33435 7.92749 1.35801 7.85693 1.40174 7.79906C1.44547 7.74119 1.50689 7.69916 1.57667 7.67936L5.66667 6.62402C5.8973 6.56456 6.1078 6.44441 6.27627 6.27605C6.44474 6.10769 6.56504 5.89728 6.62467 5.66669L7.67933 1.57669C7.69894 1.50664 7.74092 1.44492 7.79888 1.40095C7.85684 1.35699 7.92759 1.33319 8.00033 1.33319C8.07308 1.33319 8.14383 1.35699 8.20179 1.40095C8.25974 1.44492 8.30173 1.50664 8.32133 1.57669L9.37533 5.66669C9.43485 5.8974 9.55511 6.10795 9.72359 6.27644C9.89207 6.44492 10.1026 6.56517 10.3333 6.62469L14.4233 7.67869C14.4937 7.69809 14.5557 7.74003 14.5999 7.79807C14.6441 7.85612 14.668 7.92706 14.668 8.00002C14.668 8.07298 14.6441 8.14393 14.5999 8.20197C14.5557 8.26002 14.4937 8.30196 14.4233 8.32136L10.3333 9.37536C10.1026 9.43488 9.89207 9.55513 9.72359 9.72361C9.55511 9.89209 9.43485 10.1026 9.37533 10.3334L8.32067 14.4234C8.30106 14.4934 8.25908 14.5551 8.20112 14.5991C8.14316 14.6431 8.07241 14.6669 7.99967 14.6669C7.92692 14.6669 7.85617 14.6431 7.79821 14.5991C7.74026 14.5551 7.69827 14.4934 7.67867 14.4234L6.62467 10.3334Z" stroke="#E5FF00" stroke-width="1.33333" stroke-linecap="round" stroke-linejoin="round"></path><path d="M13.3333 2V4.66667" stroke="#E5FF00" stroke-width="1.33333" stroke-linecap="round" stroke-linejoin="round"></path><path d="M14.6667 3.33331H12" stroke="#E5FF00" stroke-width="1.33333" stroke-linecap="round" stroke-linejoin="round"></path><path d="M2.66669 11.3333V12.6666" stroke="#E5FF00" stroke-width="1.33333" stroke-linecap="round" stroke-linejoin="round"></path><path d="M3.33333 12H2" stroke="#E5FF00" stroke-width="1.33333" stroke-linecap="round" stroke-linejoin="round"></path></g><defs><clipPath id="clip0_90_2012"><rect width="16" height="16" fill="white"></rect></clipPath></defs></svg>