<svg xmlns="http://www.w3.org/2000/svg" width="20" height="20" viewBox="0 0 20 20" fill="none"><path d="M16.6667 6.66675H3.33333C2.8731 6.66675 2.5 7.03984 2.5 7.50008V9.16675C2.5 9.62699 2.8731 10.0001 3.33333 10.0001H16.6667C17.1269 10.0001 17.5 9.62699 17.5 9.16675V7.50008C17.5 7.03984 17.1269 6.66675 16.6667 6.66675Z" stroke="white" stroke-width="1.66667" stroke-linecap="round" stroke-linejoin="round"></path><path d="M10 6.66675V17.5001" stroke="white" stroke-width="1.66667" stroke-linecap="round" stroke-linejoin="round"></path><path d="M15.8333 10V15.8333C15.8333 16.2754 15.6577 16.6993 15.3452 17.0118C15.0326 17.3244 14.6087 17.5 14.1667 17.5H5.83333C5.39131 17.5 4.96738 17.3244 4.65482 17.0118C4.34226 16.6993 4.16667 16.2754 4.16667 15.8333V10" stroke="white" stroke-width="1.66667" stroke-linecap="round" stroke-linejoin="round"></path><path d="M6.25 6.66654C5.69747 6.66654 5.16756 6.44705 4.77686 6.05635C4.38616 5.66565 4.16667 5.13574 4.16667 4.58321C4.16667 4.03068 4.38616 3.50077 4.77686 3.11007C5.16756 2.71937 5.69747 2.49988 6.25 2.49988C7.05391 2.48587 7.84169 2.87593 8.51061 3.61918C9.17954 4.36243 9.69856 5.42438 10 6.66654C10.3014 5.42438 10.8205 4.36243 11.4894 3.61918C12.1583 2.87593 12.9461 2.48587 13.75 2.49988C14.3025 2.49988 14.8324 2.71937 15.2231 3.11007C15.6138 3.50077 15.8333 4.03068 15.8333 4.58321C15.8333 5.13574 15.6138 5.66565 15.2231 6.05635C14.8324 6.44705 14.3025 6.66654 13.75 6.66654" stroke="white" stroke-width="1.66667" stroke-linecap="round" stroke-linejoin="round"></path></svg>