<svg xmlns="http://www.w3.org/2000/svg" width="20" height="20" viewBox="0 0 20 20" fill="none"><path d="M16.6667 10.8333C16.6667 15 13.75 17.0833 10.2833 18.2916C10.1018 18.3532 9.90461 18.3502 9.72499 18.2833C6.24999 17.0833 3.33333 15 3.33333 10.8333V4.99997C3.33333 4.77895 3.42113 4.56699 3.57741 4.41071C3.73369 4.25443 3.94565 4.16663 4.16666 4.16663C5.83333 4.16663 7.91666 3.16663 9.36666 1.89997C9.54321 1.74913 9.76779 1.66626 9.99999 1.66626C10.2322 1.66626 10.4568 1.74913 10.6333 1.89997C12.0917 3.17497 14.1667 4.16663 15.8333 4.16663C16.0543 4.16663 16.2663 4.25443 16.4226 4.41071C16.5789 4.56699 16.6667 4.77895 16.6667 4.99997V10.8333Z" stroke="#FFA726" stroke-width="1.66667" stroke-linecap="round" stroke-linejoin="round"></path></svg>