<svg xmlns="http://www.w3.org/2000/svg" width="16" height="16" viewBox="0 0 16 16" fill="none"><g clip-path="url(#clip0_54_11239)"><path d="M7.99998 6.6665H2.66665C1.93027 6.6665 1.33331 7.26346 1.33331 7.99984V13.3332C1.33331 14.0696 1.93027 14.6665 2.66665 14.6665H7.99998C8.73636 14.6665 9.33331 14.0696 9.33331 13.3332V7.99984C9.33331 7.26346 8.73636 6.6665 7.99998 6.6665Z" stroke="white" stroke-width="1.33333" stroke-linecap="round" stroke-linejoin="round"></path><path d="M11.9467 9.33304L14.28 6.99971C14.5274 6.72537 14.6643 6.36909 14.6643 5.99971C14.6643 5.63032 14.5274 5.27405 14.28 4.99971L10.9467 1.71971C10.6724 1.47235 10.3161 1.33545 9.94669 1.33545C9.5773 1.33545 9.22102 1.47235 8.94669 1.71971L6.66669 3.99971" stroke="white" stroke-width="1.33333" stroke-linecap="round" stroke-linejoin="round"></path><path d="M4 12H4.00667" stroke="white" stroke-width="1.33333" stroke-linecap="round" stroke-linejoin="round"></path><path d="M6.66669 9.3335H6.67335" stroke="white" stroke-width="1.33333" stroke-linecap="round" stroke-linejoin="round"></path><path d="M10 4H10.0067" stroke="white" stroke-width="1.33333" stroke-linecap="round" stroke-linejoin="round"></path><path d="M12 6H12.0067" stroke="white" stroke-width="1.33333" stroke-linecap="round" stroke-linejoin="round"></path></g><defs><clipPath id="clip0_54_11239"><rect width="16" height="16" fill="white"></rect></clipPath></defs></svg>