<svg xmlns="http://www.w3.org/2000/svg" width="16" height="16" viewBox="0 0 16 16" fill="none"><g clip-path="url(#clip0_35_233)"><path d="M7.68332 1.53009C7.71254 1.47107 7.75767 1.42138 7.81362 1.38664C7.86958 1.3519 7.93413 1.3335 7.99999 1.3335C8.06585 1.3335 8.1304 1.3519 8.18635 1.38664C8.24231 1.42138 8.28744 1.47107 8.31666 1.53009L9.85666 4.64943C9.95811 4.85474 10.1079 5.03236 10.2931 5.16706C10.4783 5.30176 10.6934 5.3895 10.92 5.42276L14.364 5.92676C14.4292 5.93621 14.4906 5.96374 14.541 6.00622C14.5914 6.04871 14.6289 6.10446 14.6493 6.16716C14.6697 6.22987 14.6722 6.29703 14.6564 6.36105C14.6406 6.42507 14.6072 6.48339 14.56 6.52943L12.0693 8.95476C11.9051 9.11483 11.7822 9.31241 11.7112 9.53051C11.6403 9.74861 11.6234 9.98068 11.662 10.2068L12.25 13.6334C12.2615 13.6987 12.2545 13.7658 12.2297 13.8272C12.2048 13.8886 12.1633 13.9418 12.1097 13.9808C12.0561 14.0197 11.9926 14.0428 11.9266 14.0474C11.8605 14.052 11.7945 14.0379 11.736 14.0068L8.65732 12.3881C8.45447 12.2816 8.22878 12.2259 7.99966 12.2259C7.77054 12.2259 7.54484 12.2816 7.34199 12.3881L4.26399 14.0068C4.20554 14.0377 4.13959 14.0516 4.07362 14.0469C4.00766 14.0422 3.94433 14.0191 3.89085 13.9802C3.83737 13.9413 3.79588 13.8882 3.77109 13.8269C3.74631 13.7656 3.73923 13.6986 3.75066 13.6334L4.33799 10.2074C4.37679 9.98125 4.35998 9.74902 4.28901 9.53079C4.21805 9.31256 4.09506 9.11486 3.93066 8.95476L1.43999 6.53009C1.39239 6.48411 1.35865 6.42569 1.34263 6.36147C1.32661 6.29726 1.32895 6.22984 1.34938 6.16689C1.3698 6.10393 1.4075 6.04799 1.45817 6.00541C1.50885 5.96284 1.57046 5.93536 1.63599 5.92609L5.07932 5.42276C5.30616 5.38976 5.52158 5.30213 5.70704 5.16742C5.89251 5.0327 6.04246 4.85494 6.14399 4.64943L7.68332 1.53009Z" stroke="white" stroke-width="1.33333" stroke-linecap="round" stroke-linejoin="round"></path></g><defs><clipPath id="clip0_35_233"><rect width="16" height="16" fill="white"></rect></clipPath></defs></svg>