<svg xmlns="http://www.w3.org/2000/svg" width="15" height="15" viewBox="0 0 15 15" fill="none"><path d="M5.95698 9.66684C5.89747 9.43612 5.77721 9.22557 5.60873 9.05709C5.44025 8.88861 5.2297 8.76836 4.99898 8.70884L0.908985 7.65417C0.839205 7.63437 0.777791 7.59234 0.73406 7.53447C0.690329 7.4766 0.666668 7.40604 0.666668 7.3335C0.666668 7.26097 0.690329 7.19041 0.73406 7.13254C0.777791 7.07467 0.839205 7.03264 0.908985 7.01284L4.99898 5.9575C5.22962 5.89804 5.44011 5.77789 5.60859 5.60953C5.77706 5.44117 5.89736 5.23076 5.95698 5.00017L7.01165 0.910171C7.03126 0.840117 7.07324 0.778399 7.1312 0.734434C7.18916 0.690469 7.25991 0.666672 7.33265 0.666672C7.4054 0.666672 7.47615 0.690469 7.5341 0.734434C7.59206 0.778399 7.63405 0.840117 7.65365 0.910171L8.70765 5.00017C8.76717 5.23089 8.88743 5.44144 9.05591 5.60992C9.22439 5.7784 9.43494 5.89865 9.66565 5.95817L13.7557 7.01217C13.826 7.03157 13.888 7.07351 13.9322 7.13156C13.9764 7.1896 14.0004 7.26055 14.0004 7.3335C14.0004 7.40646 13.9764 7.47741 13.9322 7.53545C13.888 7.5935 13.826 7.63544 13.7557 7.65484L9.66565 8.70884C9.43494 8.76836 9.22439 8.88861 9.05591 9.05709C8.88743 9.22557 8.76717 9.43612 8.70765 9.66684L7.65298 13.7568C7.63338 13.8269 7.5914 13.8886 7.53344 13.9326C7.47548 13.9765 7.40473 14.0003 7.33199 14.0003C7.25924 14.0003 7.18849 13.9765 7.13053 13.9326C7.07257 13.8886 7.03059 13.8269 7.01098 13.7568L5.95698 9.66684Z" stroke="#101828" stroke-width="1.33333" stroke-linecap="round" stroke-linejoin="round"></path></svg>