<svg xmlns="http://www.w3.org/2000/svg" width="17" height="17" viewBox="0 0 17 17" fill="none"><path d="M0.833332 9.99999H3.33333C3.77536 9.99999 4.19928 10.1756 4.51184 10.4882C4.8244 10.8007 5 11.2246 5 11.6667V14.1667C5 14.6087 4.8244 15.0326 4.51184 15.3452C4.19928 15.6577 3.77536 15.8333 3.33333 15.8333H2.5C2.05797 15.8333 1.63405 15.6577 1.32149 15.3452C1.00893 15.0326 0.833332 14.6087 0.833332 14.1667V8.33333C0.833332 6.3442 1.62351 4.43655 3.03003 3.03003C4.43655 1.6235 6.34421 0.833328 8.33333 0.833328C10.3225 0.833328 12.2301 1.6235 13.6366 3.03003C15.0432 4.43655 15.8333 6.3442 15.8333 8.33333V14.1667C15.8333 14.6087 15.6577 15.0326 15.3452 15.3452C15.0326 15.6577 14.6087 15.8333 14.1667 15.8333H13.3333C12.8913 15.8333 12.4674 15.6577 12.1548 15.3452C11.8423 15.0326 11.6667 14.6087 11.6667 14.1667V11.6667C11.6667 11.2246 11.8423 10.8007 12.1548 10.4882C12.4674 10.1756 12.8913 9.99999 13.3333 9.99999H15.8333" stroke="#101828" stroke-width="1.66667" stroke-linecap="round" stroke-linejoin="round"></path></svg>