<svg xmlns="http://www.w3.org/2000/svg" width="19" height="18" viewBox="0 0 19 18" fill="none"><path d="M8.77231 1.079C8.80883 1.00521 8.86525 0.943107 8.93519 0.899684C9.00513 0.856262 9.08582 0.833252 9.16815 0.833252C9.25047 0.833252 9.33116 0.856262 9.4011 0.899684C9.47105 0.943107 9.52746 1.00521 9.56398 1.079L11.489 4.97816C11.6158 5.2348 11.803 5.45684 12.0345 5.62521C12.266 5.79358 12.5349 5.90326 12.8181 5.94483L17.1231 6.57483C17.2047 6.58665 17.2814 6.62106 17.3444 6.67416C17.4074 6.72727 17.4543 6.79695 17.4798 6.87534C17.5053 6.95372 17.5084 7.03767 17.4886 7.11769C17.4689 7.19772 17.4272 7.27062 17.3681 7.32816L14.2548 10.3598C14.0495 10.5599 13.8959 10.8069 13.8072 11.0795C13.7185 11.3521 13.6974 11.6422 13.7456 11.9248L14.4806 16.2082C14.495 16.2897 14.4862 16.3736 14.4552 16.4504C14.4242 16.5272 14.3723 16.5937 14.3053 16.6423C14.2383 16.691 14.159 16.7198 14.0764 16.7256C13.9938 16.7313 13.9112 16.7137 13.8381 16.6748L9.98981 14.6515C9.73624 14.5184 9.45413 14.4488 9.16773 14.4488C8.88133 14.4488 8.59921 14.5184 8.34565 14.6515L4.49815 16.6748C4.42509 16.7135 4.34264 16.7309 4.26019 16.725C4.17773 16.7192 4.09858 16.6903 4.03173 16.6417C3.96487 16.5931 3.91301 16.5267 3.88203 16.45C3.85105 16.3734 3.84219 16.2896 3.85648 16.2082L4.59065 11.9257C4.63914 11.6429 4.61813 11.3527 4.52943 11.0799C4.44072 10.8071 4.28699 10.56 4.08148 10.3598L0.968146 7.329C0.908641 7.27152 0.866474 7.19849 0.846448 7.11823C0.826422 7.03796 0.829344 6.95368 0.854878 6.87499C0.880413 6.7963 0.927535 6.72637 0.990877 6.67315C1.05422 6.61993 1.13123 6.58558 1.21315 6.574L5.51731 5.94483C5.80086 5.90358 6.07014 5.79404 6.30197 5.62565C6.53379 5.45726 6.72123 5.23506 6.84815 4.97816L8.77231 1.079Z" stroke="white" stroke-width="1.66667" stroke-linecap="round" stroke-linejoin="round"></path></svg>