<svg xmlns="http://www.w3.org/2000/svg" width="15" height="19" viewBox="0 0 15 19" fill="none"><path d="M14.1667 10.0003C14.1667 14.167 11.25 16.2503 7.78333 17.4586C7.6018 17.5201 7.40461 17.5172 7.22499 17.4503C3.74999 16.2503 0.833328 14.167 0.833328 10.0003V4.16696C0.833328 3.94595 0.921126 3.73398 1.07741 3.5777C1.23369 3.42142 1.44565 3.33363 1.66666 3.33363C3.33333 3.33363 5.41666 2.33363 6.86666 1.06696C7.04321 0.916126 7.26779 0.833252 7.49999 0.833252C7.7322 0.833252 7.95678 0.916126 8.13333 1.06696C9.59166 2.34196 11.6667 3.33363 13.3333 3.33363C13.5543 3.33363 13.7663 3.42142 13.9226 3.5777C14.0789 3.73398 14.1667 3.94595 14.1667 4.16696V10.0003Z" stroke="white" stroke-width="1.66667" stroke-linecap="round" stroke-linejoin="round"></path></svg>