<svg xmlns="http://www.w3.org/2000/svg" width="19" height="19" viewBox="0 0 19 19" fill="none"><path d="M17.4067 13.2667V15.7667C17.4077 15.9988 17.3601 16.2285 17.2672 16.4412C17.1742 16.6538 17.0378 16.8447 16.8668 17.0016C16.6958 17.1585 16.4939 17.278 16.274 17.3523C16.0542 17.4267 15.8212 17.4543 15.5901 17.4334C13.0258 17.1548 10.5626 16.2785 8.39841 14.8751C6.38493 13.5956 4.67786 11.8885 3.39841 9.87506C1.99006 7.70106 1.11361 5.22589 0.840077 2.65006C0.819252 2.41962 0.846639 2.18736 0.920494 1.96808C0.994348 1.7488 1.11305 1.5473 1.26905 1.37641C1.42504 1.20552 1.61491 1.06898 1.82657 0.975495C2.03822 0.882006 2.26703 0.833612 2.49841 0.833394H4.99841C5.40283 0.829413 5.7949 0.972626 6.10154 1.23634C6.40819 1.50005 6.60847 1.86627 6.66508 2.26673C6.7706 3.06678 6.96629 3.85233 7.24841 4.60839C7.36053 4.90666 7.3848 5.23082 7.31833 5.54246C7.25187 5.8541 7.09746 6.14015 6.87341 6.36673L5.81508 7.42506C7.00137 9.51135 8.72879 11.2388 10.8151 12.4251L11.8734 11.3667C12.1 11.1427 12.386 10.9883 12.6977 10.9218C13.0093 10.8553 13.3335 10.8796 13.6317 10.9917C14.3878 11.2739 15.1734 11.4695 15.9734 11.5751C16.3782 11.6322 16.7479 11.8361 17.0122 12.148C17.2765 12.4599 17.4169 12.858 17.4067 13.2667Z" stroke="white" stroke-width="1.66667" stroke-linecap="round" stroke-linejoin="round"></path></svg>