<svg xmlns="http://www.w3.org/2000/svg" width="4" height="4" viewBox="0 0 4 4" fill="none"><path d="M5.48363e-06 1.98397C5.48363e-06 1.50397 0.0746721 1.11997 0.224005 0.831975C0.384005 0.533308 0.597339 0.319974 0.864006 0.191974C1.14134 0.0639742 1.44534 -2.57492e-05 1.77601 -2.57492e-05C2.10667 -2.57492e-05 2.40534 0.0639742 2.67201 0.191974C2.93867 0.319974 3.15201 0.533308 3.31201 0.831975C3.47201 1.11997 3.55201 1.50397 3.55201 1.98397C3.55201 2.45331 3.47201 2.83731 3.31201 3.13597C3.15201 3.42397 2.93867 3.63731 2.67201 3.77597C2.40534 3.90397 2.10667 3.96797 1.77601 3.96797C1.44534 3.96797 1.14134 3.90397 0.864006 3.77597C0.597339 3.63731 0.384005 3.42397 0.224005 3.13597C0.0746721 2.83731 5.48363e-06 2.45331 5.48363e-06 1.98397Z" fill="#FEC611"></path></svg>