<svg xmlns="http://www.w3.org/2000/svg" width="57" height="14" viewBox="0 0 57 14" fill="none"><path d="M0 14H14V1.94311e-05H0V14ZM26.5827 4.31202V5.47402H25.1407V13.02H23.8387V11.144L24.0907 11.886C23.7547 11.4007 23.4234 10.962 23.0967 10.57C22.7701 10.1687 22.4294 9.85135 22.0747 9.61802C21.7201 9.37535 21.3374 9.25402 20.9267 9.25402C20.6187 9.25402 20.3574 9.33335 20.1427 9.49202C19.9281 9.65069 19.8207 9.88869 19.8207 10.206C19.8207 10.4954 19.9281 10.7334 20.1427 10.92C20.3574 11.1067 20.6654 11.27 21.0667 11.41L20.6607 12.642C20.1381 12.474 19.7134 12.2594 19.3867 11.998C19.0694 11.7367 18.8314 11.452 18.6727 11.144C18.5234 10.8267 18.4487 10.5 18.4487 10.164C18.4487 9.69735 18.5607 9.31469 18.7847 9.01602C19.0087 8.70802 19.2934 8.47935 19.6387 8.33002C19.9934 8.17135 20.3481 8.09202 20.7027 8.09202C21.2347 8.09202 21.7061 8.18535 22.1167 8.37202C22.5367 8.54935 22.9101 8.79669 23.2367 9.11402C23.5634 9.43135 23.8667 9.80469 24.1467 10.234L23.8947 10.318C23.8761 10.1034 23.8621 9.88402 23.8527 9.66002C23.8434 9.43602 23.8387 9.21202 23.8387 8.98802V5.47402H17.4967V4.31202H26.5827ZM21.9067 8.51202C21.9067 8.55869 21.9021 8.61469 21.8927 8.68002C21.8927 8.74535 21.8881 8.81069 21.8787 8.87602L20.6047 8.51202C20.5861 8.00802 20.4927 7.60202 20.3247 7.29402C20.1661 6.98602 19.9094 6.75269 19.5547 6.59402C19.2094 6.43535 18.7241 6.32335 18.0987 6.25802L18.3367 5.13802L19.0227 5.33402C19.5081 5.37135 19.9281 5.46469 20.2827 5.61402C20.6467 5.76335 20.9501 5.96869 21.1927 6.23002C21.4354 6.48202 21.6127 6.79935 21.7247 7.18202C21.8461 7.55535 21.9067 7.99869 21.9067 8.51202ZM30.4594 4.31202V5.47402H29.0314V13.02H27.7294V6.55202C27.6174 6.24402 27.4541 5.98735 27.2394 5.78202C27.0247 5.57669 26.7447 5.47402 26.3994 5.47402H26.3014V4.31202H26.5254C26.7494 4.31202 26.9734 4.38202 27.1974 4.52202C27.4307 4.65269 27.6221 4.87669 27.7714 5.19402C27.7621 5.14735 27.7527 5.04002 27.7434 4.87202C27.7341 4.70402 27.7294 4.55935 27.7294 4.43802V3.38802H28.7094L29.0174 4.31202H30.4594ZM32.9842 11.34C32.7229 11.34 32.4709 11.2934 32.2282 11.2C31.9949 11.0974 31.7616 10.9294 31.5282 10.696C31.2949 10.4534 31.0476 10.122 30.7862 9.70202L31.7662 9.10002C31.9996 9.50135 32.1956 9.77202 32.3542 9.91202C32.5129 10.0427 32.6856 10.108 32.8722 10.108C33.0216 10.108 33.1616 10.066 33.2922 9.98202C33.4322 9.89802 33.5816 9.74402 33.7402 9.52002C33.9082 9.28669 34.1042 8.95535 34.3282 8.52602L34.6502 8.09202C34.9022 7.58802 35.1402 7.24735 35.3642 7.07002C35.5882 6.88335 35.8402 6.79002 36.1202 6.79002C36.4189 6.79002 36.6849 6.86935 36.9182 7.02802C37.1516 7.17735 37.4176 7.41535 37.7162 7.74202L37.8282 8.30202L37.7022 9.01602C37.4502 8.68935 37.2262 8.43735 37.0302 8.26002C36.8342 8.07335 36.6476 7.98002 36.4702 7.98002C36.3489 7.98002 36.2322 8.01735 36.1202 8.09202C36.0176 8.15735 35.8962 8.29269 35.7562 8.49802C35.6256 8.70335 35.4389 9.01602 35.1962 9.43602C34.9442 9.88402 34.7109 10.2527 34.4962 10.542C34.2816 10.822 34.0576 11.0274 33.8242 11.158C33.5909 11.2794 33.3109 11.34 32.9842 11.34ZM33.9922 9.32402C33.9082 8.70802 33.8149 8.21802 33.7122 7.85402C33.6189 7.49002 33.4556 7.21002 33.2222 7.01402C32.9889 6.79935 32.6762 6.64069 32.2842 6.53802C31.8922 6.43535 31.3976 6.34669 30.8002 6.27202L31.1082 5.05402L31.9342 5.39002C32.4662 5.48335 32.9049 5.59535 33.2502 5.72602C33.5956 5.85669 33.8709 6.02469 34.0762 6.23002C34.2909 6.43535 34.4496 6.69202 34.5522 7.00002C34.6549 7.30802 34.7249 7.68135 34.7622 8.12002L33.9922 9.32402ZM44.2962 4.31202V5.47402H38.6962V10.094C38.6962 10.4767 38.7149 10.752 38.7522 10.92C38.7989 11.0787 38.8549 11.1954 38.9202 11.27C39.0789 11.4474 39.3216 11.536 39.6482 11.536C39.9936 11.536 40.3109 11.4567 40.6002 11.298C40.8989 11.1394 41.1696 10.934 41.4122 10.682C41.6642 10.43 41.8556 10.1594 41.9862 9.87002C42.1262 9.57135 42.1962 9.26802 42.1962 8.96002C42.1962 8.69869 42.1262 8.49802 41.9862 8.35802C41.8556 8.21802 41.6316 8.14802 41.3142 8.14802C41.2022 8.14802 41.0809 8.15735 40.9502 8.17602C40.8289 8.18535 40.7122 8.20402 40.6002 8.23202L40.4182 7.08402C40.6049 7.03735 40.7962 7.00002 40.9922 6.97202C41.1882 6.94402 41.4029 6.93002 41.6362 6.93002C42.0282 6.93002 42.3596 7.00002 42.6302 7.14002C42.9102 7.28002 43.1249 7.49002 43.2742 7.77002C43.4329 8.05002 43.5122 8.40002 43.5122 8.82002C43.5122 9.36135 43.3816 9.87935 43.1202 10.374C42.8682 10.8687 42.5462 11.2934 42.1542 11.648C41.7996 11.9654 41.4076 12.222 40.9782 12.418C40.5489 12.6047 40.0822 12.698 39.5782 12.698C39.1862 12.698 38.8596 12.6514 38.5982 12.558C38.3462 12.4554 38.1362 12.32 37.9682 12.152C37.8002 11.9747 37.6602 11.7507 37.5482 11.48C37.4456 11.2094 37.3942 10.7894 37.3942 10.22V8.12002L37.4362 7.72802C37.4269 7.54135 37.4176 7.35002 37.4082 7.15402C37.3989 6.94869 37.3942 6.72935 37.3942 6.49602V5.47402H30.1842V4.31202H44.2962ZM41.5802 4.31202C41.5709 3.95735 41.4822 3.70535 41.3142 3.55602C41.1556 3.39735 40.8849 3.31802 40.5022 3.31802H39.2702C38.6356 3.31802 38.1362 3.26669 37.7722 3.16402C37.4082 3.06135 37.1049 2.90735 36.8622 2.70202C36.6382 2.51535 36.4656 2.28202 36.3442 2.00202C36.2322 1.71269 36.1762 1.38135 36.1762 1.00802C36.1762 0.886686 36.1809 0.770019 36.1902 0.658019C36.2089 0.536686 36.2276 0.401352 36.2462 0.252019L37.5062 0.336019C37.4876 0.429353 37.4736 0.513352 37.4642 0.588019C37.4549 0.662685 37.4502 0.742019 37.4502 0.826019C37.4502 1.03135 37.4689 1.21335 37.5062 1.37202C37.5529 1.53069 37.6229 1.66135 37.7162 1.76402C37.8469 1.89469 38.0196 1.99269 38.2342 2.05802C38.4582 2.11402 38.7849 2.14202 39.2142 2.14202H40.3062C40.8196 2.14202 41.2256 2.18402 41.5242 2.26802C41.8229 2.34269 42.0749 2.48269 42.2802 2.68802C42.4482 2.83735 42.5742 3.04735 42.6582 3.31802C42.7516 3.57935 42.8029 3.91069 42.8122 4.31202H41.5802ZM48.1782 4.31202V5.47402H46.7502V13.02H45.4482V6.55202C45.3362 6.24402 45.1728 5.98735 44.9582 5.78202C44.7435 5.57669 44.4635 5.47402 44.1182 5.47402H44.0202V4.31202H44.2442C44.4682 4.31202 44.6922 4.38202 44.9162 4.52202C45.1495 4.65269 45.3408 4.87669 45.4902 5.19402C45.4808 5.14735 45.4715 5.04002 45.4622 4.87202C45.4528 4.70402 45.4482 4.55935 45.4482 4.43802V3.38802H46.4282L46.7362 4.31202H48.1782ZM56.667 4.31202V5.47402H55.225V13.02H53.923C53.6243 12.4787 53.2276 11.984 52.733 11.536C52.2476 11.088 51.6923 10.7147 51.067 10.416C50.4416 10.108 49.7743 9.89802 49.065 9.78602L48.477 8.34402C49.3636 7.82135 50.2923 7.34069 51.263 6.90202C52.243 6.46335 53.237 6.09935 54.245 5.81002L53.937 6.35602V5.47402H47.903V4.31202H56.667ZM53.923 6.69202L54.217 7.05602C53.5356 7.28002 52.8356 7.54602 52.117 7.85402C51.4076 8.16202 50.731 8.50269 50.087 8.87602C50.5536 8.96935 51.0483 9.14202 51.571 9.39402C52.0936 9.63669 52.5836 9.94469 53.041 10.318C53.5076 10.6914 53.881 11.1254 54.161 11.62L53.993 11.662C53.9743 11.4474 53.9556 11.2327 53.937 11.018C53.9276 10.8034 53.923 10.5607 53.923 10.29V6.69202ZM50.577 13.132C50.325 13.132 50.1103 13.0527 49.933 12.894C49.765 12.726 49.681 12.5114 49.681 12.25C49.681 11.9887 49.765 11.774 49.933 11.606C50.1103 11.4287 50.325 11.34 50.577 11.34C50.829 11.34 51.039 11.4287 51.207 11.606C51.3843 11.774 51.473 11.9887 51.473 12.25C51.473 12.5114 51.3843 12.726 51.207 12.894C51.039 13.0527 50.829 13.132 50.577 13.132Z" fill="white"></path></svg>