<svg xmlns="http://www.w3.org/2000/svg" width="19" height="19" viewBox="0 0 19 19" fill="none"><path d="M17.6193 15.7811C17.8631 16.0248 18 16.3555 18 16.7002C18 17.0449 17.8631 17.3755 17.6193 17.6193C17.3755 17.8631 17.0449 18 16.7002 18C16.3555 18 16.0248 17.8631 15.7811 17.6193L9.5 11.3382L3.21891 17.6193C2.97515 17.8631 2.64454 18 2.29981 18C1.95508 18 1.62447 17.8631 1.38071 17.6193C1.13694 17.3755 1 17.0449 1 16.7002C1 16.3555 1.13694 16.0248 1.38071 15.7811L7.66179 9.5L1.38071 3.21891C1.13694 2.97515 1 2.64454 1 2.29981C1 1.95508 1.13694 1.62447 1.38071 1.38071C1.62447 1.13694 1.95508 1 2.29981 1C2.64454 1 2.97515 1.13694 3.21891 1.38071L9.5 7.66179L15.7811 1.38071C16.0248 1.13694 16.3555 1 16.7002 1C17.0449 1 17.3755 1.13694 17.6193 1.38071C17.8631 1.62447 18 1.95508 18 2.29981C18 2.64454 17.8631 2.97515 17.6193 3.21891L11.3382 9.5L17.6193 15.7811Z" fill="#FF0000" stroke="#FF0000" stroke-width="0.7"></path></svg>