<svg xmlns="http://www.w3.org/2000/svg" width="22" height="22" viewBox="0 0 22 22" fill="none"><path d="M11 22C13.1756 22 15.3023 21.3549 17.1113 20.1462C18.9202 18.9375 20.3301 17.2195 21.1627 15.2095C21.9952 13.1995 22.2131 10.9878 21.7886 8.85401C21.3642 6.72022 20.3166 4.76021 18.7782 3.22183C17.2398 1.68345 15.2798 0.635804 13.146 0.211367C11.0122 -0.213071 8.80047 0.00476617 6.79048 0.83733C4.78049 1.66989 3.06253 3.07979 1.85383 4.88873C0.645139 6.69767 0 8.82441 0 11C0 13.9174 1.15893 16.7153 3.22183 18.7782C5.28473 20.8411 8.08262 22 11 22ZM6.29 7.71C6.1017 7.5217 5.99591 7.26631 5.99591 7C5.99591 6.7337 6.1017 6.47831 6.29 6.29C6.4783 6.1017 6.7337 5.99591 7 5.99591C7.2663 5.99591 7.5217 6.1017 7.71 6.29L11 9.59L14.29 6.3C14.4813 6.13618 14.7274 6.05057 14.9791 6.06029C15.2307 6.07001 15.4695 6.17435 15.6476 6.35244C15.8257 6.53054 15.93 6.76928 15.9397 7.02095C15.9494 7.27263 15.8638 7.5187 15.7 7.71L12.41 11L15.7 14.29C15.8047 14.3797 15.8897 14.49 15.9497 14.614C16.0097 14.7381 16.0435 14.8732 16.0488 15.011C16.0541 15.1487 16.0309 15.286 15.9806 15.4143C15.9304 15.5427 15.8541 15.6592 15.7567 15.7567C15.6592 15.8541 15.5426 15.9304 15.4143 15.9806C15.286 16.0309 15.1487 16.0541 15.0109 16.0488C14.8732 16.0435 14.7381 16.0098 14.614 15.9497C14.49 15.8897 14.3796 15.8047 14.29 15.7L11 12.41L7.71 15.71C7.5187 15.8738 7.27262 15.9594 7.02095 15.9497C6.76927 15.94 6.53053 15.8357 6.35244 15.6576C6.17434 15.4795 6.07001 15.2407 6.06029 14.9891C6.05057 14.7374 6.13617 14.4913 6.3 14.3L9.59 11L6.29 7.71Z" fill="#FF3131"></path></svg>