<svg xmlns="http://www.w3.org/2000/svg" width="22" height="18" viewBox="0 0 22 18" fill="none"><path d="M21.9975 1.9038C21.9711 1.35805 21.7114 0.865073 21.3219 0.501933C20.9324 0.138793 20.413 -0.0438165 19.8672 0.00895099C19.3215 0.0353244 18.8285 0.295018 18.4907 0.684542L8.10341 12.3703L3.35304 8.05823C2.96351 7.69509 2.44415 7.51248 1.8984 7.53887C1.35265 7.56524 0.859666 7.79855 0.521871 8.18807C0.15873 8.5776 -0.0238785 9.09696 0.00250527 9.64271C0.0288786 10.1885 0.262188 10.6814 0.651712 11.0192L6.91058 16.7058C7.27372 17.0436 7.76775 17.2251 8.26073 17.2251H8.39057C8.90993 17.1988 9.40292 16.9655 9.79244 16.5495L21.5298 3.33221C21.8423 2.94269 22.0238 2.42317 21.9975 1.9038Z" fill="#37C027"></path></svg>