<svg xmlns="http://www.w3.org/2000/svg" width="41" height="33" viewBox="0 0 41 33" fill="none"><path fill-rule="evenodd" clip-rule="evenodd" d="M15.1699 1C17.7557 1 20.0961 2.0879 21.7411 3.83951C27.2168 -0.364014 35.2663 3.50516 35.2663 10.4682C35.2663 12.6073 34.4595 14.5602 33.1332 16.0407C36.803 17.6343 39.7514 20.7182 40.4228 24.6657C40.9807 27.956 38.4434 30.9005 35.131 30.9005L27.5156 30.8988C27.3819 30.9421 26.196 32 24.128 32H6.21167C2.68549 32 -0.012311 28.8661 0.582506 25.3679C1.31078 21.0746 4.54965 17.736 8.55844 16.0412C3.24999 10.3174 7.34238 1.00042 15.1698 1.00042L15.1699 1ZM30.7664 17.8808C29.36 18.6161 27.7431 18.952 26.0926 18.8007C28.4679 21.0064 30.7344 25.0435 29.4701 28.3438L35.6188 28.3056C37.1439 28.0494 38.1544 26.6105 37.8955 25.0835C37.2942 21.537 34.2325 18.9322 30.7664 17.8808ZM26.1713 28.7099C26.9931 27.9082 27.4441 27.0315 27.232 25.7856C26.9163 23.9275 25.9558 22.2291 24.541 20.8467C23.1829 19.5209 21.4107 18.4879 19.386 17.8808C18.1282 18.5462 16.6934 18.9238 15.17 18.9238C13.6466 18.9238 12.21 18.5462 10.9539 17.8808C8.9294 18.488 7.15713 19.521 5.79898 20.8467C4.13362 22.4719 1.9003 26.1033 3.79952 28.3407C4.3975 29.0443 5.25274 29.4452 6.21154 29.4452L24.6761 29.402C25.244 29.3071 25.7553 29.0609 26.1713 28.7099ZM23.2113 5.93423C24.6178 8.71216 24.4675 12.034 22.8288 14.6708C26.5053 18.1757 32.7025 15.599 32.7025 10.4689C32.7008 5.57005 26.9898 2.9099 23.2113 5.93423ZM19.7185 5.43186C15.6762 1.40634 8.7356 4.27242 8.7356 9.96324C8.7356 15.6538 15.6758 18.5201 19.7185 14.4946C22.2308 11.9911 22.2308 7.93368 19.7185 5.43186Z" fill="black" stroke="black" stroke-width="0.3"></path></svg>