<svg xmlns="http://www.w3.org/2000/svg" width="42" height="36" viewBox="0 0 42 36" fill="none"><path d="M34.457 25.6377C34.7678 25.5733 35.0863 25.6689 35.3027 25.8848C35.5206 26.1022 35.6092 26.4108 35.543 26.7021C34.7796 30.0346 33.0614 32.0962 31.7656 33.2344C30.1014 34.6968 28.1295 35.5 26.3447 35.5C26.2816 35.5 26.2156 35.4979 26.1445 35.4961H26.1455C23.8308 35.4171 22.1029 33.9979 21.4854 31.6797L21.002 29.8662L20.5195 31.6797C19.9021 33.9979 18.1743 35.4171 15.8594 35.4961C14.0235 35.5591 11.9675 34.7524 10.2393 33.2344C8.9437 32.096 7.22637 30.0353 6.46289 26.7041C6.39703 26.4112 6.48384 26.106 6.69727 25.8916L6.69824 25.8906C6.91246 25.6744 7.22748 25.5767 7.53711 25.6357V25.6367C18.3431 27.7433 24.4039 27.7463 34.458 25.6387L34.457 25.6377ZM32.4492 27.8545C29.0512 28.4899 26.0776 28.8621 23.1455 28.9717L22.2012 29.0068L22.7617 29.7686C22.9557 30.032 23.0904 30.3441 23.1436 30.6885V30.6895C23.2832 31.5867 23.6054 32.3353 24.1367 32.8701C24.558 33.2941 25.0844 33.5548 25.6885 33.6621L25.6855 33.7012L26.209 33.7197C28.6186 33.8031 31.4898 31.8138 32.9951 28.5557L33.4014 27.6758L32.4492 27.8545ZM8.99609 28.5205C10.452 31.6972 13.2007 33.6747 15.5693 33.7197L15.7969 33.7178C16.6213 33.6902 17.3315 33.413 17.8701 32.8711C18.4016 32.3363 18.7237 31.5868 18.8633 30.6885C18.918 30.3348 19.0571 30.0162 19.2588 29.748L19.8281 28.9922L18.8838 28.9482C16.0237 28.813 13.0224 28.4379 9.53809 27.8203L8.59863 27.6533L8.99609 28.5205ZM15.9756 0.520508C16.8213 0.614978 17.6264 1.00618 18.3848 1.37891L18.3857 1.37988C18.7473 1.55646 19.1394 1.75022 19.5439 1.91797C20.0055 2.10939 20.4971 2.20699 21.002 2.20703C21.4422 2.20703 21.874 2.13225 22.2842 1.98535L22.459 1.91797C22.8634 1.75026 23.2558 1.55632 23.6172 1.37891H23.6182C24.3764 1.00622 25.1823 0.614905 26.0283 0.520508C26.7857 0.436033 27.5916 0.58885 28.4219 1.30176L28.5879 1.45215C29.9281 2.72172 31.027 4.89464 31.8008 7.98633C31.9116 8.42888 32.0152 8.88548 32.1074 9.35254L32.5244 9.26953L32.4619 9.73828C35.2598 10.5114 37.4154 11.5298 38.8604 12.6982C40.301 13.8633 40.9999 15.1442 41 16.4688C41 18.6855 38.9812 20.8519 34.8291 22.4316C31.135 23.8367 26.2262 24.6191 21 24.6191C16.1002 24.6191 11.4779 23.9313 7.87695 22.6875L7.1709 22.4316C3.01899 20.852 1 18.6839 1 16.4688C1.0001 15.1448 1.6989 13.8636 3.13965 12.6982C4.58441 11.5296 6.73939 10.5113 9.53809 9.73828L9.83496 9.65625L9.89551 9.35449C9.99007 8.88489 10.0916 8.4277 10.2021 7.98633C10.976 4.89445 12.0739 2.72057 13.4141 1.45117C14.304 0.609527 15.168 0.430381 15.9756 0.520508ZM32.5654 12.3545C32.6953 13.5569 32.7656 14.7614 32.7656 15.9023C32.7655 16.237 32.5717 16.543 32.2646 16.6943L32.127 16.749C28.5242 17.86 24.7804 18.4228 21.0029 18.4229C17.4615 18.4229 13.9508 17.9285 10.5557 16.9512L9.87793 16.749L9.74023 16.6943C9.43491 16.5439 9.24038 16.2371 9.24023 15.9023C9.24023 14.7614 9.31054 13.5569 9.44043 12.3545L9.52344 11.583L8.78613 11.8262C6.82418 12.4736 5.36434 13.2325 4.38379 14.0098C3.42338 14.7711 2.83496 15.6238 2.83496 16.4688C2.83504 17.3074 3.39812 18.1086 4.2373 18.8057C5.09449 19.5177 6.33073 20.1992 7.88672 20.792C11.0029 21.9792 15.4819 22.8405 21.002 22.8408V22.8418H21.0049V22.8408C26.5251 22.8406 31.0039 21.9793 34.1201 20.792C35.6761 20.1992 36.9123 19.5177 37.7695 18.8057C38.6087 18.1086 39.1718 17.3074 39.1719 16.4688C39.1719 15.6238 38.5837 14.7712 37.623 14.0098C36.6422 13.2324 35.1818 12.4736 33.2188 11.8262L32.4814 11.583L32.5654 12.3545ZM26.1797 2.28906C25.9575 2.31634 25.7171 2.39339 25.4492 2.50195C25.1775 2.6121 24.8481 2.76644 24.4434 2.96582C24.0581 3.15587 23.6325 3.36385 23.1787 3.55273C22.4903 3.83893 21.757 3.9853 21.0029 3.98535C20.2488 3.98535 19.5162 3.83937 18.8252 3.55273L18.8242 3.55176C18.3721 3.36533 17.9483 3.15663 17.5615 2.96582H17.5605C17.156 2.767 16.8273 2.61279 16.5557 2.50293C16.2877 2.39456 16.0472 2.31728 15.8252 2.29004C15.5874 2.2609 15.3692 2.28929 15.1611 2.38672C15.0441 2.44155 14.943 2.51517 14.8525 2.58984H14.8369L14.6924 2.72656C13.5432 3.8143 12.6923 5.76134 12.1064 7.92188C11.5144 10.1051 11.1699 12.5954 11.0869 14.8545L11.0723 15.249L11.4531 15.3545C14.5606 16.2118 17.7683 16.6465 21.001 16.6465C24.2335 16.6465 27.4403 16.2117 30.5479 15.3545L30.9297 15.249L30.915 14.8545C30.832 12.5953 30.4866 10.1051 29.8945 7.92188C29.3087 5.76145 28.4586 3.81423 27.3096 2.72656H27.3086C27.1849 2.60906 27.034 2.47478 26.8447 2.38574C26.6365 2.28781 26.4178 2.25989 26.1797 2.28906Z" fill="black" stroke="black"></path></svg>