<svg xmlns="http://www.w3.org/2000/svg" width="36" height="41" viewBox="0 0 36 41" fill="none"><path d="M18.4722 1.05107L18.6225 1.09362L33.8194 6.41306C34.4848 6.64712 34.9571 7.24289 35 7.94506V8.094V23.797H34.9785C34.6566 29.4994 29.8914 34.4784 20.9407 38.8191L20.0821 39.2234C19.6528 39.4361 19.202 39.6276 18.7298 39.8404C18.2576 40.0532 17.7424 40.0532 17.2702 39.8404C16.8194 39.6489 16.3687 39.4361 15.9179 39.2234L15.0593 38.8191C6.13005 34.4571 1.3649 29.4994 1.02146 23.797H1V8.094C1 7.39184 1.40783 6.75351 2.07323 6.47689L2.20202 6.43434L17.399 1.1149C17.7639 0.987233 18.1288 0.965956 18.4722 1.05107ZM18.0215 4.64701L4.60606 9.34939V23.1587C4.60606 27.4568 8.51263 31.6698 16.6048 35.6274L17.4419 36.0317L18 36.287L18.5581 36.0317L19.3952 35.6274L20.2109 35.2231C27.6376 31.457 31.2866 27.4568 31.4154 23.3927V23.1799V9.34939L18.0215 4.64701ZM17.0126 26.2014C16.8838 26.329 16.7121 26.4142 16.5404 26.4567L16.4331 26.478H16.3258C16.1111 26.4567 15.8965 26.3716 15.7462 26.2227L10.6806 21.2011C10.3371 20.8607 10.3371 20.2862 10.6806 19.9457L11.947 18.6903C12.2904 18.3499 12.8699 18.3499 13.2134 18.6903L16.3687 21.8182L23.3232 14.9242C23.6667 14.5837 24.2462 14.5837 24.5896 14.9242L25.8561 16.1796C26.1995 16.52 26.1995 17.0945 25.8561 17.4349L17.0126 26.2014Z" fill="black" stroke="#FFF1CD" stroke-width="0.6"></path></svg>