<svg xmlns="http://www.w3.org/2000/svg" width="38" height="37" viewBox="0 0 38 37" fill="none"><path d="M25.0489 21.8296C25.2411 23.9997 23.8033 26.1699 21.3087 27.2246C20.6683 27.4803 20.348 27.7999 20.4762 28.5638C20.7644 29.9029 19.8998 30.1906 18.8142 30.1906C17.7895 30.1906 17.0882 29.871 17.2804 28.6917C17.4085 27.8607 17.1203 27.4164 16.2877 27.1927C14.3696 26.7133 13.3449 25.3422 12.9606 23.4597C12.8005 22.6287 13.0246 21.8329 13.9853 21.737C14.8179 21.6411 15.7754 21.3535 16.1916 22.6638C16.8321 24.4825 19.0704 25.0577 20.7004 23.9711C21.3728 23.5236 21.693 22.9195 21.597 22.1525C21.533 21.2895 20.9886 20.6535 20.1913 20.3339C19.1377 19.9503 18.017 19.7266 16.9282 19.375C14.3696 18.576 13.0599 17.109 12.9639 15.0667C12.8358 12.481 13.8605 10.9182 16.4799 9.79957C17.1844 9.51192 17.3766 9.12839 17.3125 8.42843C17.1524 7.15319 18.049 6.99339 19.0385 6.9614C20.1273 6.92944 20.7325 7.34493 20.5403 8.49233C20.3802 9.35528 20.8606 9.63969 21.533 9.86347C22.8747 10.3109 23.8354 11.2026 24.4438 12.4491C25.2124 14.1079 24.668 15.0028 22.91 14.7471C22.1094 14.9389 21.6963 14.5234 21.3441 13.7883C20.4794 12.0976 17.8889 11.9058 16.7392 13.4048C16.0347 14.3316 16.2589 15.511 17.3797 16.0223C18.4333 16.4698 19.554 16.7574 20.6428 17.0451C23.323 17.8409 24.8568 19.4676 25.0489 21.8296ZM19.1344 9.31037e-05C8.90044 -0.0318673 0.971626 8.16931 0.523212 17.4253C-0.0211644 28.5953 9.09226 37.3083 19.1664 36.9916C28.5684 37.2473 37.2013 29.2347 37.4899 18.9913C37.8422 8.29744 28.9209 9.31037e-05 19.1344 9.31037e-05ZM19.0704 33.511C10.7251 33.4791 4.01041 26.7449 4.01041 18.4161C4.01041 10.1834 10.7575 3.50934 19.0704 3.50934C27.3189 3.50934 34.1304 10.3074 34.0058 18.6043C33.8425 27.224 27.0954 33.511 19.0704 33.511ZM25.0489 21.8296C25.2411 23.9997 23.8033 26.1699 21.3087 27.2246C20.6683 27.4803 20.348 27.7999 20.4762 28.5638C20.7644 29.9029 19.8998 30.1906 18.8142 30.1906C17.7895 30.1906 17.0882 29.871 17.2804 28.6917C17.4085 27.8607 17.1203 27.4164 16.2877 27.1927C14.3696 26.7133 13.3449 25.3422 12.9606 23.4597C12.8005 22.6287 13.0246 21.8329 13.9853 21.737C14.8179 21.6411 15.7754 21.3535 16.1916 22.6638C16.8321 24.4825 19.0704 25.0577 20.7004 23.9711C21.3728 23.5236 21.693 22.9195 21.597 22.1525C21.533 21.2895 20.9886 20.6535 20.1913 20.3339C19.1377 19.9503 18.017 19.7266 16.9282 19.375C14.3696 18.576 13.0599 17.109 12.9639 15.0667C12.8358 12.481 13.8605 10.9182 16.4799 9.79957C17.1844 9.51192 17.3766 9.12839 17.3125 8.42843C17.1524 7.15319 18.049 6.99339 19.0385 6.9614C20.1273 6.92944 20.7325 7.34493 20.5403 8.49233C20.3802 9.35528 20.8606 9.63969 21.533 9.86347C22.8747 10.3109 23.8354 11.2026 24.4438 12.4491C25.2124 14.1079 24.668 15.0028 22.91 14.7471C22.1094 14.9389 21.6963 14.5234 21.3441 13.7883C20.4794 12.0976 17.8889 11.9058 16.7392 13.4048C16.0347 14.3316 16.2589 15.511 17.3797 16.0223C18.4333 16.4698 19.554 16.7574 20.6428 17.0451C23.323 17.8409 24.8568 19.4676 25.0489 21.8296Z" fill="black"></path></svg>