<svg xmlns="http://www.w3.org/2000/svg" width="29" height="29" viewBox="0 0 29 29" fill="none"><path d="M29 14.5C29 6.49187 22.5081 0 14.5 0C6.49187 0 0 6.49187 0 14.5C0 21.7374 5.30243 27.7361 12.2344 28.8239V18.6914H8.55274V14.5H12.2344V11.3055C12.2344 7.6714 14.3991 5.66407 17.7112 5.66407C19.2977 5.66407 20.957 5.94727 20.957 5.94727V9.51563H19.1286C17.3274 9.51563 16.7656 10.6334 16.7656 11.78V14.5H20.7871L20.1442 18.6914H16.7656V28.8239C23.6976 27.7361 29 21.7374 29 14.5Z" fill="white"></path><path d="M20.1442 18.6914L20.7871 14.5H16.7656V11.78C16.7656 10.6333 17.3274 9.51562 19.1286 9.51562H20.957V5.94726C20.957 5.94726 19.2977 5.66406 17.7112 5.66406C14.3991 5.66406 12.2344 7.67139 12.2344 11.3055V14.5H8.55273V18.6914H12.2344V28.8238C12.9839 28.9413 13.7414 29.0002 14.5 29C15.2708 29 16.0274 28.9397 16.7656 28.8238V18.6914H20.1442Z" fill="#1877F2"></path></svg>