<svg xmlns="http://www.w3.org/2000/svg" width="29" height="29" viewBox="0 0 29 29" fill="none"><circle cx="14.5" cy="14.5" r="14.5" fill="white"></circle><path d="M22.6116 18.7341C22.4391 19.6394 21.7063 20.3291 20.801 20.4585C19.3784 20.674 17.0074 20.9327 14.3347 20.9327C11.705 20.9327 9.33404 20.674 7.86834 20.4585C6.96305 20.3291 6.2302 19.6394 6.05776 18.7341C5.88533 17.7426 5.71289 16.2769 5.71289 14.4663C5.71289 12.6558 5.88533 11.1901 6.05776 10.1986C6.2302 9.29327 6.96305 8.60352 7.86834 8.4742C9.29093 8.25865 11.6619 8 14.3347 8C17.0074 8 19.3353 8.25865 20.801 8.4742C21.7063 8.60352 22.4391 9.29327 22.6116 10.1986C22.784 11.1901 22.9996 12.6558 22.9996 14.4663C22.9564 16.2769 22.784 17.7426 22.6116 18.7341Z" fill="#FF3D00"></path><path d="M12.6113 17.4845V11.4492L17.7844 14.4668L12.6113 17.4845Z" fill="white"></path></svg>